<?xml version="1.0" encoding="UTF-8" standalone="no"?>
<svg version="1.1" xmlns="http://www.w3.org/2000/svg" xmlns:xlink="http://www.w3.org/1999/xlink">
<defs>
<symbol id="jqShowcaseX"><path d="M31.708 25.708c-0-0-0-0-0-0l-9.708-9.708 9.708-9.708c0-0 0-0 0-0 0.105-0.105 0.18-0.227 0.229-0.357 0.133-0.356 0.057-0.771-0.229-1.057l-4.586-4.586c-0.286-0.286-0.702-0.361-1.057-0.229-0.13 0.048-0.252 0.124-0.357 0.228 0 0-0 0-0 0l-9.708 9.708-9.708-9.708c-0-0-0-0-0-0-0.105-0.104-0.227-0.18-0.357-0.228-0.356-0.133-0.771-0.057-1.057 0.229l-4.586 4.586c-0.286 0.286-0.361 0.702-0.229 1.057 0.049 0.13 0.124 0.252 0.229 0.357 0 0 0 0 0 0l9.708 9.708-9.708 9.708c-0 0-0 0-0 0-0.104 0.105-0.18 0.227-0.229 0.357-0.133 0.355-0.057 0.771 0.229 1.057l4.586 4.586c0.286 0.286 0.702 0.361 1.057 0.229 0.13-0.049 0.252-0.124 0.357-0.229 0-0 0-0 0-0l9.708-9.708 9.708 9.708c0 0 0 0 0 0 0.105 0.105 0.227 0.18 0.357 0.229 0.356 0.133 0.771 0.057 1.057-0.229l4.586-4.586c0.286-0.286 0.362-0.702 0.229-1.057-0.049-0.13-0.124-0.252-0.229-0.357z"></path></symbol>
<symbol id="jqShowcaseLeft"><path d="M8.388,10.049l4.76-4.873c0.303-0.31,0.297-0.804-0.012-1.105c-0.309-0.304-0.803-0.293-1.105,0.012L6.726,9.516c-0.303,0.31-0.296,0.805,0.012,1.105l5.433,5.307c0.152,0.148,0.35,0.223,0.547,0.223c0.203,0,0.406-0.08,0.559-0.236c0.303-0.309,0.295-0.803-0.012-1.104L8.388,10.049z"></path></symbol>
<symbol id="jqShowcaseRight"><path d="M11.611,10.049l-4.76-4.873c-0.303-0.31-0.297-0.804,0.012-1.105c0.309-0.304,0.803-0.293,1.105,0.012l5.306,5.433c0.304,0.31,0.296,0.805-0.012,1.105L7.83,15.928c-0.152,0.148-0.35,0.223-0.547,0.223c-0.203,0-0.406-0.08-0.559-0.236c-0.303-0.309-0.295-0.803,0.012-1.104L11.611,10.049z"></path></symbol>
<symbol id="jqShowcaseCheck"><path d="M27 4l-15 15-7-7-5 5 12 12 20-20z"></path></symbol>
</defs>
</svg>
